<?xml version="1.0" encoding="UTF-8"?> <svg xmlns="http://www.w3.org/2000/svg" xmlns:xlink="http://www.w3.org/1999/xlink" width="141px" height="29px" viewBox="0 0 141 29" version="1.1"><!-- Generator: Sketch 52.3 (67297) - http://www.bohemiancoding.com/sketch --><title>frontity-blue-text-logo</title><desc>Created with Sketch.</desc><g id="Page-1" stroke="none" stroke-width="1" fill="none" fill-rule="evenodd"><g id="frontity-blue-text-logo" fill="#1F38C5" fill-rule="nonzero"><path d="M44.4662988,2.65010256 L44.4662988,6.32779591 L36.6241586,6.32779591 L36.6241586,10.5192847 L42.6815358,10.5192847 L42.6815358,14.0347268 L36.6241586,14.0347268 L36.6241586,21.7686996 L32,21.7686996 L32,2.65010256 L44.4662988,2.65010256 Z M51.5828157,9.51873573 C52.1597117,8.5993078 52.9033554,7.8691848 53.8137694,7.32834484 C54.7241833,6.78750488 55.7112014,6.51708895 56.7748534,6.51708895 L56.7748534,11.4657499 L55.4498021,11.4657499 C54.2238982,11.4657499 53.2729355,11.7271519 52.5968856,12.2499639 C51.9208356,12.7727758 51.5828157,13.6561345 51.5828157,14.9000664 L51.5828157,21.7686996 L46.9586571,21.7686996 L46.9586571,6.67934013 L51.5828157,6.67934013 L51.5828157,9.51873573 Z M65.8924681,6.49004709 C67.388792,6.49004709 68.7273508,6.80102541 69.9081848,7.42299136 C71.0890187,8.04495732 72.0174467,8.9418368 72.6934966,10.1136567 C73.3695466,11.2854766 73.7075665,12.655584 73.7075665,14.2240199 C73.7075665,15.7924558 73.3695466,17.1625631 72.6934966,18.334383 C72.0174467,19.506203 71.0890187,20.4030824 69.9081848,21.0250484 C68.7273508,21.6470143 67.388792,21.9579927 65.8924681,21.9579927 C64.3961442,21.9579927 63.0530785,21.6470143 61.8632306,21.0250484 C60.6733826,20.4030824 59.7404477,19.506203 59.0643977,18.334383 C58.3883478,17.1625631 58.0503279,15.7924558 58.0503279,14.2240199 C58.0503279,12.655584 58.3883478,11.2854766 59.0643977,10.1136567 C59.7404477,8.9418368 60.6733826,8.04495732 61.8632306,7.42299136 C63.0530785,6.80102541 64.3961442,6.49004709 65.8924681,6.49004709 Z M65.8924681,10.4922428 C65.0090962,10.4922428 64.2654524,10.812235 63.6615144,11.4522289 C63.0575765,12.0922229 62.755612,13.016144 62.755612,14.2240199 C62.755612,15.4318958 63.0575765,16.3513099 63.6615144,16.9822899 C64.2654524,17.6132698 65.0090962,17.9287551 65.8924681,17.9287551 C66.7758401,17.9287551 67.5149769,17.6132698 68.1099009,16.9822899 C68.7048248,16.3513099 69.0022824,15.4318958 69.0022824,14.2240199 C69.0022824,13.016144 68.7048248,12.0922229 68.1099009,11.4522289 C67.5149769,10.812235 66.7758401,10.4922428 65.8924681,10.4922428 Z M85.7997862,6.51708895 C87.530474,6.51708895 88.9050883,7.09397626 89.9236703,8.24776818 C90.9422522,9.4015601 91.4515355,10.9880002 91.4515355,13.007136 L91.4515355,21.7686996 L86.827377,21.7686996 L86.827377,13.5479733 C86.827377,12.5384054 86.561468,11.7496923 86.029642,11.1818103 C85.497816,10.6139283 84.7902277,10.3299916 83.9068558,10.3299916 C82.9693998,10.3299916 82.225756,10.6274491 81.6759021,11.2223731 C81.1260481,11.8172971 80.8511253,12.6646003 80.8511253,13.7643082 L80.8511253,21.7686996 L76.2269667,21.7686996 L76.2269667,6.67934013 L80.8511253,6.67934013 L80.8511253,9.43761015 C81.2837972,8.53621021 81.9282885,7.82411494 82.7846185,7.30130298 C83.6409484,6.77849102 84.6459943,6.51708895 85.7997862,6.51708895 Z M103.165169,17.7935458 L103.165169,21.7686996 L101.082946,21.7686996 C99.3162018,21.7686996 97.9415875,21.3315272 96.9590616,20.4571693 C95.9765356,19.5828113 95.48528,18.1360861 95.48528,16.1169503 L95.48528,10.5733684 L93.4571403,10.5733684 L93.4571403,6.67934013 L95.48528,6.67934013 L95.48528,2.97460492 L100.109439,2.97460492 L100.109439,6.67934013 L103.138127,6.67934013 L103.138127,10.5733684 L100.109439,10.5733684 L100.109439,16.1980759 C100.109439,16.7929998 100.231126,17.2076376 100.474504,17.4420016 C100.717882,17.6763655 101.128013,17.7935458 101.704909,17.7935458 L103.165169,17.7935458 Z M105.441193,2.43376766 C105.441193,1.73067571 105.693581,1.14928147 106.198365,0.689567504 C106.703149,0.229853536 107.370175,0 108.199463,0 C109.028751,0 109.695776,0.229853536 110.20056,0.689567504 C110.705344,1.14928147 110.957733,1.73067571 110.957733,2.43376766 C110.957733,3.11883161 110.705344,3.69121198 110.20056,4.15092595 C109.695776,4.61063992 109.028751,4.84049346 108.199463,4.84049346 C107.370175,4.84049346 106.703149,4.61063992 106.198365,4.15092595 C105.693581,3.69121198 105.441193,3.11883161 105.441193,2.43376766 Z M110.498021,6.67934013 L110.498021,21.7686996 L105.873862,21.7686996 L105.873862,6.67934013 L110.498021,6.67934013 Z M122.346864,17.7935458 L122.346864,21.7686996 L120.26464,21.7686996 C118.497897,21.7686996 117.123282,21.3315272 116.140756,20.4571693 C115.15823,19.5828113 114.666975,18.1360861 114.666975,16.1169503 L114.666975,10.5733684 L112.638835,10.5733684 L112.638835,6.67934013 L114.666975,6.67934013 L114.666975,2.97460492 L119.291133,2.97460492 L119.291133,6.67934013 L122.319822,6.67934013 L122.319822,10.5733684 L119.291133,10.5733684 L119.291133,16.1980759 C119.291133,16.7929998 119.41282,17.2076376 119.656198,17.4420016 C119.899576,17.6763655 120.309707,17.7935458 120.886603,17.7935458 L122.346864,17.7935458 Z M128.543957,6.67934013 L132.167567,15.9276572 L135.5478,6.67934013 L140.658712,6.67934013 L131.248144,28.9618351 L126.164273,28.9618351 L129.706757,21.2008205 L123.378962,6.67934013 L128.543957,6.67934013 Z" id="Frontity"></path><g id="Imagotype" transform="translate(0.000000, 2.897676)"><path d="M3.76306634,0.0818600113 L13.0473855,9.36617919 L12.5276854,9.88486001 L12.5423851,9.89893881 L3.25806595,19.183258 L0.0316854164,15.9568775 L6.60868542,9.37986001 L0.536685805,3.30824054 L3.76306634,0.0818600113 Z M14.3677184,0.0818600113 L23.6520376,9.36617919 L23.1326854,9.88486001 L23.1470372,9.89893881 L13.8627181,19.183258 L10.6363375,15.9568775 L17.2126854,9.37986001 L11.1413379,3.30824054 L14.3677184,0.0818600113 Z" id="Combined-Shape"></path></g></g></g></svg> 